<?xml version="1.0" encoding="utf-8"?>
<!-- Generator: Adobe Illustrator 26.2.1, SVG Export Plug-In . SVG Version: 6.00 Build 0)  -->
<svg version="1.1" id="Layer_1" xmlns="http://www.w3.org/2000/svg" xmlns:xlink="http://www.w3.org/1999/xlink" x="0px" y="0px"
	 viewBox="0 0 700 700" style="enable-background:new 0 0 700 700;" xml:space="preserve">
<style type="text/css">
	.st0{fill:#FFFFFF;}
</style>
<g>
	<path class="st0" d="M285.9,571.3c63.9,0.1,126-21.4,176.2-61l189.5,189.5l48.4-48.4L510.5,461.9c53.5-68.3,73.1-157.3,53.2-241.8
		c-19.9-84.5-77.2-155.3-155.6-192.5S238.6-9.2,160.5,28.9C82.5,66.9,26,138.3,7,223c-19,84.7,1.5,173.5,55.7,241.2
		C116.9,532,199.1,571.4,285.9,571.3L285.9,571.3z M285.9,68.6c57.6,0,112.8,22.9,153.5,63.6S503,228.1,503,285.7
		s-22.9,112.8-63.6,153.5s-95.9,63.6-153.5,63.6s-112.8-22.9-153.5-63.6s-63.6-95.9-63.6-153.5s22.9-112.8,63.6-153.5
		S228.3,68.6,285.9,68.6z"/>
</g>
</svg>
